<?xml version="1.0" encoding="utf-8" standalone="no"?>
<!DOCTYPE svg PUBLIC "-//W3C//DTD SVG 1.1//EN"
  "http://www.w3.org/Graphics/SVG/1.1/DTD/svg11.dtd">
<!-- Created with matplotlib (https://matplotlib.org/) -->
<svg height="199.64pt" version="1.1" viewBox="0 0 469.245 199.64" width="469.245pt" xmlns="http://www.w3.org/2000/svg" xmlns:xlink="http://www.w3.org/1999/xlink">
 <defs>
  <style type="text/css">
*{stroke-linecap:butt;stroke-linejoin:round;}
  </style>
 </defs>
 <g id="figure_1">
  <g id="patch_1">
   <path d="M 0 199.64 
L 469.245 199.64 
L 469.245 0 
L 0 0 
z
" style="fill:#ffffff;"/>
  </g>
  <g id="axes_1">
   <g id="patch_2">
    <path d="M 40.95 161.44 
L 206.838 161.44 
L 206.838 23.2 
L 40.95 23.2 
z
" style="fill:#ffffff;"/>
   </g>
   <g id="PolyCollection_1">
    <defs>
     <path d="M 40.95 -46.00364 
L 40.95 -41.548919 
L 41.50296 -41.483622 
L 42.05592 -41.401956 
L 42.60888 -41.344764 
L 43.16184 -41.281263 
L 43.7148 -41.196655 
L 44.26776 -41.089142 
L 44.82072 -41.073696 
L 45.37368 -40.963619 
L 45.92664 -40.9666 
L 46.4796 -40.873041 
L 47.03256 -40.87472 
L 47.58552 -40.818825 
L 48.13848 -40.718361 
L 48.69144 -40.706596 
L 49.2444 -40.625861 
L 49.79736 -40.54812 
L 50.35032 -40.56489 
L 50.90328 -40.398098 
L 51.45624 -40.432748 
L 52.0092 -40.384439 
L 52.56216 -40.32445 
L 53.11512 -40.16774 
L 53.66808 -40.148269 
L 54.22104 -40.059455 
L 54.774 -40.052803 
L 55.32696 -39.896004 
L 55.87992 -39.935735 
L 56.43288 -39.844768 
L 56.98584 -39.874949 
L 57.5388 -39.804482 
L 58.09176 -39.715323 
L 58.64472 -39.652474 
L 59.19768 -39.639872 
L 59.75064 -39.577646 
L 60.3036 -39.575874 
L 60.85656 -39.574083 
L 61.40952 -39.573623 
L 61.96248 -39.488664 
L 62.51544 -39.449289 
L 63.0684 -39.456651 
L 63.62136 -39.404405 
L 64.17432 -39.337962 
L 64.72728 -39.368291 
L 65.28024 -39.271616 
L 65.8332 -39.249114 
L 66.38616 -39.271601 
L 66.93912 -39.290277 
L 67.49208 -39.23505 
L 68.04504 -39.195146 
L 68.598 -39.206806 
L 69.15096 -39.128431 
L 69.70392 -39.138 
L 70.25688 -39.057054 
L 70.80984 -39.007251 
L 71.3628 -38.952521 
L 71.91576 -38.954561 
L 72.46872 -38.836341 
L 73.02168 -38.771469 
L 73.57464 -38.847378 
L 74.1276 -38.810866 
L 74.68056 -38.822881 
L 75.23352 -38.789382 
L 75.78648 -38.809744 
L 76.33944 -38.75973 
L 76.8924 -38.752291 
L 77.44536 -38.605666 
L 77.99832 -38.583487 
L 78.55128 -38.554751 
L 79.10424 -38.625891 
L 79.6572 -38.604538 
L 80.21016 -38.517784 
L 80.76312 -38.507351 
L 81.31608 -38.492925 
L 81.86904 -38.391281 
L 82.422 -38.322358 
L 82.97496 -38.291677 
L 83.52792 -38.269373 
L 84.08088 -38.30394 
L 84.63384 -38.232241 
L 85.1868 -38.2 
L 85.73976 -38.210497 
L 86.29272 -38.316443 
L 86.84568 -38.307511 
L 87.39864 -38.342107 
L 87.9516 -38.381072 
L 88.50456 -38.368603 
L 89.05752 -38.342225 
L 89.61048 -38.443459 
L 90.16344 -38.423072 
L 90.7164 -38.495475 
L 91.26936 -38.504167 
L 91.82232 -38.609868 
L 92.37528 -38.676512 
L 92.92824 -38.717876 
L 93.4812 -38.701266 
L 94.03416 -38.739149 
L 94.58712 -38.824603 
L 95.14008 -38.976338 
L 95.69304 -38.978156 
L 96.246 -39.109311 
L 96.79896 -39.1385 
L 97.35192 -39.244178 
L 97.90488 -39.344592 
L 98.45784 -39.523877 
L 99.0108 -39.601722 
L 99.56376 -39.77428 
L 100.11672 -39.90032 
L 100.66968 -40.035456 
L 101.22264 -40.197727 
L 101.7756 -40.311563 
L 102.32856 -40.516121 
L 102.88152 -40.745136 
L 103.43448 -40.93011 
L 103.98744 -41.185579 
L 104.5404 -41.466699 
L 105.09336 -41.762232 
L 105.64632 -42.062428 
L 106.19928 -42.472202 
L 106.75224 -42.832512 
L 107.3052 -43.223254 
L 107.85816 -43.633746 
L 108.41112 -44.184417 
L 108.96408 -44.666523 
L 109.51704 -45.299642 
L 110.07 -45.833429 
L 110.62296 -46.494112 
L 111.17592 -47.286967 
L 111.72888 -48.036063 
L 112.28184 -48.930268 
L 112.8348 -49.871571 
L 113.38776 -50.916395 
L 113.94072 -51.997901 
L 114.49368 -53.202988 
L 115.04664 -54.498664 
L 115.5996 -55.905594 
L 116.15256 -57.48438 
L 116.70552 -59.191972 
L 117.25848 -61.042152 
L 117.81144 -62.972895 
L 118.3644 -65.149079 
L 118.91736 -67.489951 
L 119.47032 -70.078716 
L 120.02328 -72.763889 
L 120.57624 -75.705497 
L 121.1292 -78.907917 
L 121.68216 -82.195755 
L 122.23512 -85.752396 
L 122.78808 -89.018333 
L 123.34104 -89.464451 
L 123.894 -112.483134 
L 124.44696 -112.737884 
L 124.99992 -116.526285 
L 125.55288 -120.551073 
L 126.10584 -124.482741 
L 126.6588 -128.246949 
L 127.21176 -131.870424 
L 127.76472 -135.204204 
L 128.31768 -138.429157 
L 128.87064 -141.341212 
L 129.4236 -144.06011 
L 129.97656 -146.310603 
L 130.52952 -148.57768 
L 131.08248 -150.467893 
L 131.63544 -152.220168 
L 132.1884 -153.690345 
L 132.74136 -155.114434 
L 133.29432 -156.322039 
L 133.84728 -157.365803 
L 134.40024 -158.194112 
L 134.9532 -159.050713 
L 135.50616 -159.564864 
L 136.05912 -159.939385 
L 136.61208 -160.279445 
L 137.16504 -160.659248 
L 137.718 -160.650969 
L 138.27096 -160.760576 
L 138.82392 -160.805746 
L 139.37688 -160.713513 
L 139.92984 -160.560973 
L 140.4828 -160.284623 
L 141.03576 -159.953221 
L 141.58872 -159.578683 
L 142.14168 -159.132388 
L 142.69464 -158.651138 
L 143.2476 -158.062719 
L 143.80056 -157.574152 
L 144.35352 -157.025527 
L 144.90648 -156.528594 
L 145.45944 -155.934406 
L 146.0124 -155.363979 
L 146.56536 -154.60749 
L 147.11832 -153.98404 
L 147.67128 -153.324448 
L 148.22424 -152.543721 
L 148.7772 -151.974303 
L 149.33016 -151.327851 
L 149.88312 -150.552683 
L 150.43608 -149.803769 
L 150.98904 -149.084888 
L 151.542 -148.306591 
L 152.09496 -147.580536 
L 152.64792 -146.928876 
L 153.20088 -146.151878 
L 153.75384 -145.371848 
L 154.3068 -144.652061 
L 154.85976 -143.975439 
L 155.41272 -143.1716 
L 155.96568 -142.36783 
L 156.51864 -141.649299 
L 157.0716 -140.862591 
L 157.62456 -140.149879 
L 158.17752 -139.368792 
L 158.73048 -138.570315 
L 159.28344 -137.965217 
L 159.8364 -137.226242 
L 160.38936 -136.461739 
L 160.94232 -135.81278 
L 161.49528 -135.105673 
L 162.04824 -134.410285 
L 162.6012 -133.683588 
L 163.15416 -132.913574 
L 163.70712 -132.241826 
L 164.26008 -131.497752 
L 164.81304 -130.748347 
L 165.366 -130.117038 
L 165.91896 -129.400441 
L 166.47192 -128.755517 
L 167.02488 -128.049035 
L 167.57784 -127.361034 
L 168.1308 -126.748743 
L 168.68376 -126.135606 
L 169.23672 -125.415605 
L 169.78968 -124.823508 
L 170.34264 -124.07311 
L 170.8956 -123.469989 
L 171.44856 -122.866201 
L 172.00152 -122.260907 
L 172.55448 -121.5719 
L 173.10744 -121.064736 
L 173.6604 -120.457187 
L 174.21336 -119.787411 
L 174.76632 -119.294886 
L 175.31928 -118.63436 
L 175.87224 -118.057163 
L 176.4252 -117.417104 
L 176.97816 -116.866537 
L 177.53112 -116.234058 
L 178.08408 -115.657591 
L 178.63704 -115.094502 
L 179.19 -114.482338 
L 179.74296 -113.913887 
L 180.29592 -113.397223 
L 180.84888 -112.825557 
L 181.40184 -112.301993 
L 181.9548 -111.739038 
L 182.50776 -111.179836 
L 183.06072 -110.655299 
L 183.61368 -110.041431 
L 184.16664 -109.532672 
L 184.7196 -108.901246 
L 185.27256 -108.332425 
L 185.82552 -107.873839 
L 186.37848 -107.314053 
L 186.93144 -106.773671 
L 187.4844 -106.270435 
L 188.03736 -105.782084 
L 188.59032 -105.242222 
L 189.14328 -104.677343 
L 189.69624 -104.204744 
L 190.2492 -103.684535 
L 190.80216 -103.254293 
L 191.35512 -102.742621 
L 191.90808 -102.288377 
L 192.46104 -101.821345 
L 193.014 -101.362963 
L 193.56696 -100.941976 
L 194.11992 -100.515424 
L 194.67288 -100.020427 
L 195.22584 -99.620598 
L 195.7788 -99.189376 
L 196.33176 -98.753256 
L 196.88472 -98.317242 
L 197.43768 -97.91307 
L 197.99064 -97.447051 
L 198.5436 -96.99456 
L 199.09656 -96.710973 
L 199.64952 -96.306741 
L 200.20248 -95.896258 
L 200.75544 -95.497518 
L 201.3084 -95.047225 
L 201.86136 -94.736028 
L 202.41432 -94.369834 
L 202.96728 -93.938859 
L 203.52024 -93.64941 
L 204.0732 -93.17964 
L 204.62616 -92.852765 
L 205.17912 -92.448244 
L 205.73208 -92.042971 
L 206.28504 -91.691795 
L 206.838 -91.329808 
L 206.838 -101.125421 
L 206.838 -101.125421 
L 206.28504 -101.532898 
L 205.73208 -101.916829 
L 205.17912 -102.372279 
L 204.62616 -102.810843 
L 204.0732 -103.184106 
L 203.52024 -103.691268 
L 202.96728 -104.025782 
L 202.41432 -104.496885 
L 201.86136 -104.909804 
L 201.3084 -105.257725 
L 200.75544 -105.750367 
L 200.20248 -106.19385 
L 199.64952 -106.643884 
L 199.09656 -107.090959 
L 198.5436 -107.416615 
L 197.99064 -107.911355 
L 197.43768 -108.415247 
L 196.88472 -108.862948 
L 196.33176 -109.340743 
L 195.7788 -109.825161 
L 195.22584 -110.29615 
L 194.67288 -110.743485 
L 194.11992 -111.280327 
L 193.56696 -111.757075 
L 193.014 -112.228804 
L 192.46104 -112.727764 
L 191.90808 -113.241347 
L 191.35512 -113.746279 
L 190.80216 -114.307511 
L 190.2492 -114.77727 
L 189.69624 -115.354107 
L 189.14328 -115.877975 
L 188.59032 -116.5033 
L 188.03736 -117.098397 
L 187.4844 -117.635873 
L 186.93144 -118.205634 
L 186.37848 -118.792364 
L 185.82552 -119.413575 
L 185.27256 -119.930206 
L 184.7196 -120.557531 
L 184.16664 -121.239381 
L 183.61368 -121.798801 
L 183.06072 -122.474014 
L 182.50776 -123.051712 
L 181.9548 -123.654229 
L 181.40184 -124.273747 
L 180.84888 -124.850213 
L 180.29592 -125.477666 
L 179.74296 -126.048353 
L 179.19 -126.674967 
L 178.63704 -127.336388 
L 178.08408 -127.951354 
L 177.53112 -128.580049 
L 176.97816 -129.268182 
L 176.4252 -129.872303 
L 175.87224 -130.571267 
L 175.31928 -131.19247 
L 174.76632 -131.914543 
L 174.21336 -132.456474 
L 173.6604 -133.185105 
L 173.10744 -133.849524 
L 172.55448 -134.409345 
L 172.00152 -135.157942 
L 171.44856 -135.815989 
L 170.8956 -136.470187 
L 170.34264 -137.130446 
L 169.78968 -137.937017 
L 169.23672 -138.592149 
L 168.68376 -139.371542 
L 168.1308 -140.0415 
L 167.57784 -140.707409 
L 167.02488 -141.451475 
L 166.47192 -142.219828 
L 165.91896 -142.919437 
L 165.366 -143.688967 
L 164.81304 -144.392747 
L 164.26008 -145.19138 
L 163.70712 -146.008841 
L 163.15416 -146.734359 
L 162.6012 -147.574821 
L 162.04824 -148.362994 
L 161.49528 -149.126 
L 160.94232 -149.889557 
L 160.38936 -150.601117 
L 159.8364 -151.426051 
L 159.28344 -152.219828 
L 158.73048 -152.890301 
L 158.17752 -153.753425 
L 157.62456 -154.603831 
L 157.0716 -155.378548 
L 156.51864 -156.22978 
L 155.96568 -157.013716 
L 155.41272 -157.875549 
L 154.85976 -158.748795 
L 154.3068 -159.487669 
L 153.75384 -160.26408 
L 153.20088 -161.102065 
L 152.64792 -161.935512 
L 152.09496 -162.647261 
L 151.542 -163.430882 
L 150.98904 -164.259487 
L 150.43608 -165.034444 
L 149.88312 -165.83553 
L 149.33016 -166.664479 
L 148.7772 -167.351569 
L 148.22424 -167.964437 
L 147.67128 -168.791058 
L 147.11832 -169.509459 
L 146.56536 -170.150185 
L 146.0124 -170.945256 
L 145.45944 -171.544171 
L 144.90648 -172.169235 
L 144.35352 -172.684998 
L 143.80056 -173.256083 
L 143.2476 -173.757416 
L 142.69464 -174.359041 
L 142.14168 -174.852375 
L 141.58872 -175.308157 
L 141.03576 -175.679506 
L 140.4828 -176.006878 
L 139.92984 -176.26046 
L 139.37688 -176.380965 
L 138.82392 -176.44 
L 138.27096 -176.341091 
L 137.718 -176.171083 
L 137.16504 -176.124978 
L 136.61208 -175.658371 
L 136.05912 -175.237723 
L 135.50616 -174.768246 
L 134.9532 -174.157183 
L 134.40024 -173.16608 
L 133.84728 -172.210347 
L 133.29432 -171.016502 
L 132.74136 -169.646824 
L 132.1884 -168.043998 
L 131.63544 -166.388658 
L 131.08248 -164.420163 
L 130.52952 -162.300921 
L 129.97656 -159.786494 
L 129.4236 -157.285661 
L 128.87064 -154.280284 
L 128.31768 -151.074369 
L 127.76472 -147.53111 
L 127.21176 -143.852975 
L 126.6588 -139.873997 
L 126.10584 -135.745592 
L 125.55288 -131.439316 
L 124.99992 -127.011528 
L 124.44696 -122.8067 
L 123.894 -122.207969 
L 123.34104 -98.600726 
L 122.78808 -97.833911 
L 122.23512 -94.182554 
L 121.68216 -90.275235 
L 121.1292 -86.678596 
L 120.57624 -83.180099 
L 120.02328 -79.970956 
L 119.47032 -77.023994 
L 118.91736 -74.198028 
L 118.3644 -71.631692 
L 117.81144 -69.244204 
L 117.25848 -67.138027 
L 116.70552 -65.108439 
L 116.15256 -63.245211 
L 115.5996 -61.510511 
L 115.04664 -59.96232 
L 114.49368 -58.550267 
L 113.94072 -57.227861 
L 113.38776 -56.042295 
L 112.8348 -54.894082 
L 112.28184 -53.867039 
L 111.72888 -52.884699 
L 111.17592 -52.073448 
L 110.62296 -51.204726 
L 110.07 -50.481612 
L 109.51704 -49.888344 
L 108.96408 -49.200438 
L 108.41112 -48.668165 
L 107.85816 -48.079742 
L 107.3052 -47.636155 
L 106.75224 -47.197899 
L 106.19928 -46.806389 
L 105.64632 -46.369152 
L 105.09336 -46.034795 
L 104.5404 -45.720573 
L 103.98744 -45.413936 
L 103.43448 -45.131882 
L 102.88152 -44.927211 
L 102.32856 -44.687307 
L 101.7756 -44.469679 
L 101.22264 -44.347009 
L 100.66968 -44.183457 
L 100.11672 -44.028473 
L 99.56376 -43.900765 
L 99.0108 -43.716458 
L 98.45784 -43.629487 
L 97.90488 -43.451319 
L 97.35192 -43.341921 
L 96.79896 -43.23037 
L 96.246 -43.208897 
L 95.69304 -43.059222 
L 95.14008 -43.066528 
L 94.58712 -42.90875 
L 94.03416 -42.82354 
L 93.4812 -42.781903 
L 92.92824 -42.806625 
L 92.37528 -42.760313 
L 91.82232 -42.698251 
L 91.26936 -42.582832 
L 90.7164 -42.582712 
L 90.16344 -42.511867 
L 89.61048 -42.526279 
L 89.05752 -42.412248 
L 88.50456 -42.450678 
L 87.9516 -42.461141 
L 87.39864 -42.42474 
L 86.84568 -42.393791 
L 86.29272 -42.397396 
L 85.73976 -42.284914 
L 85.1868 -42.27234 
L 84.63384 -42.308173 
L 84.08088 -42.389045 
L 83.52792 -42.341437 
L 82.97496 -42.380612 
L 82.422 -42.412575 
L 81.86904 -42.489304 
L 81.31608 -42.58783 
L 80.76312 -42.608753 
L 80.21016 -42.629603 
L 79.6572 -42.725218 
L 79.10424 -42.753054 
L 78.55128 -42.676377 
L 77.99832 -42.712049 
L 77.44536 -42.735329 
L 76.8924 -42.898622 
L 76.33944 -42.911334 
L 75.78648 -42.95943 
L 75.23352 -42.939922 
L 74.68056 -42.983331 
L 74.1276 -42.969717 
L 73.57464 -43.008381 
L 73.02168 -42.939354 
L 72.46872 -43.003645 
L 71.91576 -43.127767 
L 71.3628 -43.136788 
L 70.80984 -43.198885 
L 70.25688 -43.265513 
L 69.70392 -43.349101 
L 69.15096 -43.341251 
L 68.598 -43.428418 
L 68.04504 -43.4089 
L 67.49208 -43.454948 
L 66.93912 -43.514975 
L 66.38616 -43.505065 
L 65.8332 -43.486209 
L 65.28024 -43.508917 
L 64.72728 -43.613191 
L 64.17432 -43.58281 
L 63.62136 -43.659219 
L 63.0684 -43.718239 
L 62.51544 -43.706934 
L 61.96248 -43.753358 
L 61.40952 -43.84137 
L 60.85656 -43.854475 
L 60.3036 -43.852943 
L 59.75064 -43.866945 
L 59.19768 -43.92153 
L 58.64472 -43.940139 
L 58.09176 -44.002826 
L 57.5388 -44.108607 
L 56.98584 -44.190458 
L 56.43288 -44.155612 
L 55.87992 -44.253137 
L 55.32696 -44.212323 
L 54.774 -44.374972 
L 54.22104 -44.388105 
L 53.66808 -44.49513 
L 53.11512 -44.516709 
L 52.56216 -44.688526 
L 52.0092 -44.755139 
L 51.45624 -44.800701 
L 50.90328 -44.769321 
L 50.35032 -44.94872 
L 49.79736 -44.919417 
L 49.2444 -44.9982 
L 48.69144 -45.083846 
L 48.13848 -45.099032 
L 47.58552 -45.20699 
L 47.03256 -45.26863 
L 46.4796 -45.26221 
L 45.92664 -45.358213 
L 45.37368 -45.354296 
L 44.82072 -45.472665 
L 44.26776 -45.498305 
L 43.7148 -45.612848 
L 43.16184 -45.696648 
L 42.60888 -45.775975 
L 42.05592 -45.833366 
L 41.50296 -45.921934 
L 40.95 -46.00364 
z
" id="m75424e2ffc" style="stroke:#000000;stroke-opacity:0.6;stroke-width:0.5;"/>
    </defs>
    <g clip-path="url(#p18d91a5b9e)">
     <use style="fill:#30a2da;fill-opacity:0.6;stroke:#000000;stroke-opacity:0.6;stroke-width:0.5;" x="0" xlink:href="#m75424e2ffc" y="199.64"/>
    </g>
   </g>
   <g id="line2d_1">
    <path clip-path="url(#p18d91a5b9e)" d="M 40.95 155.86372 
L 47.03256 156.568325 
L 54.774 157.426113 
L 55.32696 157.585837 
L 55.87992 157.545564 
L 56.43288 157.63981 
L 57.5388 157.683456 
L 58.64472 157.843694 
L 63.0684 158.052555 
L 65.8332 158.272338 
L 67.49208 158.295001 
L 74.1276 158.749709 
L 76.33944 158.804468 
L 76.8924 158.814543 
L 77.44536 158.969503 
L 82.97496 159.303855 
L 85.73976 159.392295 
L 86.29272 159.28308 
L 89.05752 159.262763 
L 89.61048 159.155131 
L 91.26936 159.0965 
L 92.92824 158.87775 
L 94.03416 158.858656 
L 97.90488 158.242045 
L 99.56376 157.802477 
L 101.7756 157.249379 
L 103.98744 156.340243 
L 105.64632 155.42421 
L 108.41112 153.213709 
L 108.96408 152.70652 
L 111.17592 149.959792 
L 112.28184 148.241347 
L 113.38776 146.160655 
L 114.49368 143.763372 
L 115.5996 140.931947 
L 116.70552 137.489795 
L 117.81144 133.53145 
L 118.91736 128.796011 
L 120.57624 120.197202 
L 122.78808 106.213878 
L 123.34104 105.607411 
L 123.894 82.294449 
L 124.44696 81.867708 
L 127.76472 58.272343 
L 128.87064 51.829252 
L 129.97656 46.591452 
L 131.08248 42.195972 
L 132.1884 38.772828 
L 133.29432 35.97073 
L 134.40024 33.959904 
L 134.9532 33.036052 
L 136.05912 32.051446 
L 137.16504 31.247887 
L 137.718 31.228974 
L 138.82392 31.017127 
L 139.92984 31.229284 
L 141.03576 31.823636 
L 142.14168 32.647618 
L 143.80056 34.224883 
L 146.0124 36.485382 
L 147.11832 37.89325 
L 149.88312 41.445893 
L 160.94232 56.788831 
L 168.1308 66.244878 
L 169.78968 68.259738 
L 170.8956 69.669912 
L 180.29592 80.202555 
L 185.27256 85.508685 
L 186.37848 86.586792 
L 190.2492 90.409098 
L 191.90808 91.875138 
L 195.22584 94.681626 
L 199.64952 98.164688 
L 202.96728 100.657679 
L 203.52024 100.969661 
L 204.62616 101.808196 
L 206.838 103.412386 
L 206.838 103.412386 
" style="fill:none;stroke:#000000;stroke-linecap:square;stroke-width:2;"/>
   </g>
   <g id="matplotlib.axis_1">
    <g id="xtick_1">
     <g id="line2d_2">
      <defs>
       <path d="M 0 0 
L 0 3.5 
" id="m21c90d8cb3" style="stroke:#000000;stroke-width:0.8;"/>
      </defs>
      <g>
       <use style="stroke:#000000;stroke-width:0.8;" x="40.95" xlink:href="#m21c90d8cb3" y="161.44"/>
      </g>
     </g>
     <g id="text_1">
      <!-- −10 -->
      <defs>
       <path d="M 10.59375 35.5 
L 73.1875 35.5 
L 73.1875 27.203125 
L 10.59375 27.203125 
z
" id="DejaVuSans-8722"/>
       <path d="M 12.40625 8.296875 
L 28.515625 8.296875 
L 28.515625 63.921875 
L 10.984375 60.40625 
L 10.984375 69.390625 
L 28.421875 72.90625 
L 38.28125 72.90625 
L 38.28125 8.296875 
L 54.390625 8.296875 
L 54.390625 0 
L 12.40625 0 
z
" id="DejaVuSans-49"/>
       <path d="M 31.78125 66.40625 
Q 24.171875 66.40625 20.328125 58.90625 
Q 16.5 51.421875 16.5 36.375 
Q 16.5 21.390625 20.328125 13.890625 
Q 24.171875 6.390625 31.78125 6.390625 
Q 39.453125 6.390625 43.28125 13.890625 
Q 47.125 21.390625 47.125 36.375 
Q 47.125 51.421875 43.28125 58.90625 
Q 39.453125 66.40625 31.78125 66.40625 
z
M 31.78125 74.21875 
Q 44.046875 74.21875 50.515625 64.515625 
Q 56.984375 54.828125 56.984375 36.375 
Q 56.984375 17.96875 50.515625 8.265625 
Q 44.046875 -1.421875 31.78125 -1.421875 
Q 19.53125 -1.421875 13.0625 8.265625 
Q 6.59375 17.96875 6.59375 36.375 
Q 6.59375 54.828125 13.0625 64.515625 
Q 19.53125 74.21875 31.78125 74.21875 
z
" id="DejaVuSans-48"/>
      </defs>
      <g transform="translate(30.397656 176.038438)scale(0.1 -0.1)">
       <use xlink:href="#DejaVuSans-8722"/>
       <use x="83.789062" xlink:href="#DejaVuSans-49"/>
       <use x="147.412109" xlink:href="#DejaVuSans-48"/>
      </g>
     </g>
    </g>
    <g id="xtick_2">
     <g id="line2d_3">
      <g>
       <use style="stroke:#000000;stroke-width:0.8;" x="82.422" xlink:href="#m21c90d8cb3" y="161.44"/>
      </g>
     </g>
     <g id="text_2">
      <!-- −5 -->
      <defs>
       <path d="M 10.796875 72.90625 
L 49.515625 72.90625 
L 49.515625 64.59375 
L 19.828125 64.59375 
L 19.828125 46.734375 
Q 21.96875 47.46875 24.109375 47.828125 
Q 26.265625 48.1875 28.421875 48.1875 
Q 40.625 48.1875 47.75 41.5 
Q 54.890625 34.8125 54.890625 23.390625 
Q 54.890625 11.625 47.5625 5.09375 
Q 40.234375 -1.421875 26.90625 -1.421875 
Q 22.3125 -1.421875 17.546875 -0.640625 
Q 12.796875 0.140625 7.71875 1.703125 
L 7.71875 11.625 
Q 12.109375 9.234375 16.796875 8.0625 
Q 21.484375 6.890625 26.703125 6.890625 
Q 35.15625 6.890625 40.078125 11.328125 
Q 45.015625 15.765625 45.015625 23.390625 
Q 45.015625 31 40.078125 35.4375 
Q 35.15625 39.890625 26.703125 39.890625 
Q 22.75 39.890625 18.8125 39.015625 
Q 14.890625 38.140625 10.796875 36.28125 
z
" id="DejaVuSans-53"/>
      </defs>
      <g transform="translate(75.050906 176.038438)scale(0.1 -0.1)">
       <use xlink:href="#DejaVuSans-8722"/>
       <use x="83.789062" xlink:href="#DejaVuSans-53"/>
      </g>
     </g>
    </g>
    <g id="xtick_3">
     <g id="line2d_4">
      <g>
       <use style="stroke:#000000;stroke-width:0.8;" x="123.894" xlink:href="#m21c90d8cb3" y="161.44"/>
      </g>
     </g>
     <g id="text_3">
      <!-- 0 -->
      <g transform="translate(120.71275 176.038438)scale(0.1 -0.1)">
       <use xlink:href="#DejaVuSans-48"/>
      </g>
     </g>
    </g>
    <g id="xtick_4">
     <g id="line2d_5">
      <g>
       <use style="stroke:#000000;stroke-width:0.8;" x="165.366" xlink:href="#m21c90d8cb3" y="161.44"/>
      </g>
     </g>
     <g id="text_4">
      <!-- 5 -->
      <g transform="translate(162.18475 176.038438)scale(0.1 -0.1)">
       <use xlink:href="#DejaVuSans-53"/>
      </g>
     </g>
    </g>
    <g id="xtick_5">
     <g id="line2d_6">
      <g>
       <use style="stroke:#000000;stroke-width:0.8;" x="206.838" xlink:href="#m21c90d8cb3" y="161.44"/>
      </g>
     </g>
     <g id="text_5">
      <!-- 10 -->
      <g transform="translate(200.4755 176.038438)scale(0.1 -0.1)">
       <use xlink:href="#DejaVuSans-49"/>
       <use x="63.623047" xlink:href="#DejaVuSans-48"/>
      </g>
     </g>
    </g>
    <g id="text_6">
     <!-- time (sec) -->
     <defs>
      <path d="M 18.3125 70.21875 
L 18.3125 54.6875 
L 36.8125 54.6875 
L 36.8125 47.703125 
L 18.3125 47.703125 
L 18.3125 18.015625 
Q 18.3125 11.328125 20.140625 9.421875 
Q 21.96875 7.515625 27.59375 7.515625 
L 36.8125 7.515625 
L 36.8125 0 
L 27.59375 0 
Q 17.1875 0 13.234375 3.875 
Q 9.28125 7.765625 9.28125 18.015625 
L 9.28125 47.703125 
L 2.6875 47.703125 
L 2.6875 54.6875 
L 9.28125 54.6875 
L 9.28125 70.21875 
z
" id="DejaVuSans-116"/>
      <path d="M 9.421875 54.6875 
L 18.40625 54.6875 
L 18.40625 0 
L 9.421875 0 
z
M 9.421875 75.984375 
L 18.40625 75.984375 
L 18.40625 64.59375 
L 9.421875 64.59375 
z
" id="DejaVuSans-105"/>
      <path d="M 52 44.1875 
Q 55.375 50.25 60.0625 53.125 
Q 64.75 56 71.09375 56 
Q 79.640625 56 84.28125 50.015625 
Q 88.921875 44.046875 88.921875 33.015625 
L 88.921875 0 
L 79.890625 0 
L 79.890625 32.71875 
Q 79.890625 40.578125 77.09375 44.375 
Q 74.3125 48.1875 68.609375 48.1875 
Q 61.625 48.1875 57.5625 43.546875 
Q 53.515625 38.921875 53.515625 30.90625 
L 53.515625 0 
L 44.484375 0 
L 44.484375 32.71875 
Q 44.484375 40.625 41.703125 44.40625 
Q 38.921875 48.1875 33.109375 48.1875 
Q 26.21875 48.1875 22.15625 43.53125 
Q 18.109375 38.875 18.109375 30.90625 
L 18.109375 0 
L 9.078125 0 
L 9.078125 54.6875 
L 18.109375 54.6875 
L 18.109375 46.1875 
Q 21.1875 51.21875 25.484375 53.609375 
Q 29.78125 56 35.6875 56 
Q 41.65625 56 45.828125 52.96875 
Q 50 49.953125 52 44.1875 
z
" id="DejaVuSans-109"/>
      <path d="M 56.203125 29.59375 
L 56.203125 25.203125 
L 14.890625 25.203125 
Q 15.484375 15.921875 20.484375 11.0625 
Q 25.484375 6.203125 34.421875 6.203125 
Q 39.59375 6.203125 44.453125 7.46875 
Q 49.3125 8.734375 54.109375 11.28125 
L 54.109375 2.78125 
Q 49.265625 0.734375 44.1875 -0.34375 
Q 39.109375 -1.421875 33.890625 -1.421875 
Q 20.796875 -1.421875 13.15625 6.1875 
Q 5.515625 13.8125 5.515625 26.8125 
Q 5.515625 40.234375 12.765625 48.109375 
Q 20.015625 56 32.328125 56 
Q 43.359375 56 49.78125 48.890625 
Q 56.203125 41.796875 56.203125 29.59375 
z
M 47.21875 32.234375 
Q 47.125 39.59375 43.09375 43.984375 
Q 39.0625 48.390625 32.421875 48.390625 
Q 24.90625 48.390625 20.390625 44.140625 
Q 15.875 39.890625 15.1875 32.171875 
z
" id="DejaVuSans-101"/>
      <path id="DejaVuSans-32"/>
      <path d="M 31 75.875 
Q 24.46875 64.65625 21.28125 53.65625 
Q 18.109375 42.671875 18.109375 31.390625 
Q 18.109375 20.125 21.3125 9.0625 
Q 24.515625 -2 31 -13.1875 
L 23.1875 -13.1875 
Q 15.875 -1.703125 12.234375 9.375 
Q 8.59375 20.453125 8.59375 31.390625 
Q 8.59375 42.28125 12.203125 53.3125 
Q 15.828125 64.359375 23.1875 75.875 
z
" id="DejaVuSans-40"/>
      <path d="M 44.28125 53.078125 
L 44.28125 44.578125 
Q 40.484375 46.53125 36.375 47.5 
Q 32.28125 48.484375 27.875 48.484375 
Q 21.1875 48.484375 17.84375 46.4375 
Q 14.5 44.390625 14.5 40.28125 
Q 14.5 37.15625 16.890625 35.375 
Q 19.28125 33.59375 26.515625 31.984375 
L 29.59375 31.296875 
Q 39.15625 29.25 43.1875 25.515625 
Q 47.21875 21.78125 47.21875 15.09375 
Q 47.21875 7.46875 41.1875 3.015625 
Q 35.15625 -1.421875 24.609375 -1.421875 
Q 20.21875 -1.421875 15.453125 -0.5625 
Q 10.6875 0.296875 5.421875 2 
L 5.421875 11.28125 
Q 10.40625 8.6875 15.234375 7.390625 
Q 20.0625 6.109375 24.8125 6.109375 
Q 31.15625 6.109375 34.5625 8.28125 
Q 37.984375 10.453125 37.984375 14.40625 
Q 37.984375 18.0625 35.515625 20.015625 
Q 33.0625 21.96875 24.703125 23.78125 
L 21.578125 24.515625 
Q 13.234375 26.265625 9.515625 29.90625 
Q 5.8125 33.546875 5.8125 39.890625 
Q 5.8125 47.609375 11.28125 51.796875 
Q 16.75 56 26.8125 56 
Q 31.78125 56 36.171875 55.265625 
Q 40.578125 54.546875 44.28125 53.078125 
z
" id="DejaVuSans-115"/>
      <path d="M 48.78125 52.59375 
L 48.78125 44.1875 
Q 44.96875 46.296875 41.140625 47.34375 
Q 37.3125 48.390625 33.40625 48.390625 
Q 24.65625 48.390625 19.8125 42.84375 
Q 14.984375 37.3125 14.984375 27.296875 
Q 14.984375 17.28125 19.8125 11.734375 
Q 24.65625 6.203125 33.40625 6.203125 
Q 37.3125 6.203125 41.140625 7.25 
Q 44.96875 8.296875 48.78125 10.40625 
L 48.78125 2.09375 
Q 45.015625 0.34375 40.984375 -0.53125 
Q 36.96875 -1.421875 32.421875 -1.421875 
Q 20.0625 -1.421875 12.78125 6.34375 
Q 5.515625 14.109375 5.515625 27.296875 
Q 5.515625 40.671875 12.859375 48.328125 
Q 20.21875 56 33.015625 56 
Q 37.15625 56 41.109375 55.140625 
Q 45.0625 54.296875 48.78125 52.59375 
z
" id="DejaVuSans-99"/>
      <path d="M 8.015625 75.875 
L 15.828125 75.875 
Q 23.140625 64.359375 26.78125 53.3125 
Q 30.421875 42.28125 30.421875 31.390625 
Q 30.421875 20.453125 26.78125 9.375 
Q 23.140625 -1.703125 15.828125 -13.1875 
L 8.015625 -13.1875 
Q 14.5 -2 17.703125 9.0625 
Q 20.90625 20.125 20.90625 31.390625 
Q 20.90625 42.671875 17.703125 53.65625 
Q 14.5 64.65625 8.015625 75.875 
z
" id="DejaVuSans-41"/>
     </defs>
     <g transform="translate(98.676812 189.716563)scale(0.1 -0.1)">
      <use xlink:href="#DejaVuSans-116"/>
      <use x="39.208984" xlink:href="#DejaVuSans-105"/>
      <use x="66.992188" xlink:href="#DejaVuSans-109"/>
      <use x="164.404297" xlink:href="#DejaVuSans-101"/>
      <use x="225.927734" xlink:href="#DejaVuSans-32"/>
      <use x="257.714844" xlink:href="#DejaVuSans-40"/>
      <use x="296.728516" xlink:href="#DejaVuSans-115"/>
      <use x="348.828125" xlink:href="#DejaVuSans-101"/>
      <use x="410.351562" xlink:href="#DejaVuSans-99"/>
      <use x="465.332031" xlink:href="#DejaVuSans-41"/>
     </g>
    </g>
   </g>
   <g id="matplotlib.axis_2">
    <g id="ytick_1">
     <g id="line2d_7">
      <defs>
       <path d="M 0 0 
L -3.5 0 
" id="m09c4978795" style="stroke:#000000;stroke-width:0.8;"/>
      </defs>
      <g>
       <use style="stroke:#000000;stroke-width:0.8;" x="40.95" xlink:href="#m09c4978795" y="130.983832"/>
      </g>
     </g>
     <g id="text_7">
      <!-- 20 -->
      <defs>
       <path d="M 19.1875 8.296875 
L 53.609375 8.296875 
L 53.609375 0 
L 7.328125 0 
L 7.328125 8.296875 
Q 12.9375 14.109375 22.625 23.890625 
Q 32.328125 33.6875 34.8125 36.53125 
Q 39.546875 41.84375 41.421875 45.53125 
Q 43.3125 49.21875 43.3125 52.78125 
Q 43.3125 58.59375 39.234375 62.25 
Q 35.15625 65.921875 28.609375 65.921875 
Q 23.96875 65.921875 18.8125 64.3125 
Q 13.671875 62.703125 7.8125 59.421875 
L 7.8125 69.390625 
Q 13.765625 71.78125 18.9375 73 
Q 24.125 74.21875 28.421875 74.21875 
Q 39.75 74.21875 46.484375 68.546875 
Q 53.21875 62.890625 53.21875 53.421875 
Q 53.21875 48.921875 51.53125 44.890625 
Q 49.859375 40.875 45.40625 35.40625 
Q 44.1875 33.984375 37.640625 27.21875 
Q 31.109375 20.453125 19.1875 8.296875 
z
" id="DejaVuSans-50"/>
      </defs>
      <g transform="translate(21.225 134.783051)scale(0.1 -0.1)">
       <use xlink:href="#DejaVuSans-50"/>
       <use x="63.623047" xlink:href="#DejaVuSans-48"/>
      </g>
     </g>
    </g>
    <g id="ytick_2">
     <g id="line2d_8">
      <g>
       <use style="stroke:#000000;stroke-width:0.8;" x="40.95" xlink:href="#m09c4978795" y="88.054384"/>
      </g>
     </g>
     <g id="text_8">
      <!-- 30 -->
      <defs>
       <path d="M 40.578125 39.3125 
Q 47.65625 37.796875 51.625 33 
Q 55.609375 28.21875 55.609375 21.1875 
Q 55.609375 10.40625 48.1875 4.484375 
Q 40.765625 -1.421875 27.09375 -1.421875 
Q 22.515625 -1.421875 17.65625 -0.515625 
Q 12.796875 0.390625 7.625 2.203125 
L 7.625 11.71875 
Q 11.71875 9.328125 16.59375 8.109375 
Q 21.484375 6.890625 26.8125 6.890625 
Q 36.078125 6.890625 40.9375 10.546875 
Q 45.796875 14.203125 45.796875 21.1875 
Q 45.796875 27.640625 41.28125 31.265625 
Q 36.765625 34.90625 28.71875 34.90625 
L 20.21875 34.90625 
L 20.21875 43.015625 
L 29.109375 43.015625 
Q 36.375 43.015625 40.234375 45.921875 
Q 44.09375 48.828125 44.09375 54.296875 
Q 44.09375 59.90625 40.109375 62.90625 
Q 36.140625 65.921875 28.71875 65.921875 
Q 24.65625 65.921875 20.015625 65.03125 
Q 15.375 64.15625 9.8125 62.3125 
L 9.8125 71.09375 
Q 15.4375 72.65625 20.34375 73.4375 
Q 25.25 74.21875 29.59375 74.21875 
Q 40.828125 74.21875 47.359375 69.109375 
Q 53.90625 64.015625 53.90625 55.328125 
Q 53.90625 49.265625 50.4375 45.09375 
Q 46.96875 40.921875 40.578125 39.3125 
z
" id="DejaVuSans-51"/>
      </defs>
      <g transform="translate(21.225 91.853602)scale(0.1 -0.1)">
       <use xlink:href="#DejaVuSans-51"/>
       <use x="63.623047" xlink:href="#DejaVuSans-48"/>
      </g>
     </g>
    </g>
    <g id="ytick_3">
     <g id="line2d_9">
      <g>
       <use style="stroke:#000000;stroke-width:0.8;" x="40.95" xlink:href="#m09c4978795" y="45.124935"/>
      </g>
     </g>
     <g id="text_9">
      <!-- 40 -->
      <defs>
       <path d="M 37.796875 64.3125 
L 12.890625 25.390625 
L 37.796875 25.390625 
z
M 35.203125 72.90625 
L 47.609375 72.90625 
L 47.609375 25.390625 
L 58.015625 25.390625 
L 58.015625 17.1875 
L 47.609375 17.1875 
L 47.609375 0 
L 37.796875 0 
L 37.796875 17.1875 
L 4.890625 17.1875 
L 4.890625 26.703125 
z
" id="DejaVuSans-52"/>
      </defs>
      <g transform="translate(21.225 48.924154)scale(0.1 -0.1)">
       <use xlink:href="#DejaVuSans-52"/>
       <use x="63.623047" xlink:href="#DejaVuSans-48"/>
      </g>
     </g>
    </g>
    <g id="text_10">
     <!-- fluorescence (A. U.) -->
     <defs>
      <path d="M 37.109375 75.984375 
L 37.109375 68.5 
L 28.515625 68.5 
Q 23.6875 68.5 21.796875 66.546875 
Q 19.921875 64.59375 19.921875 59.515625 
L 19.921875 54.6875 
L 34.71875 54.6875 
L 34.71875 47.703125 
L 19.921875 47.703125 
L 19.921875 0 
L 10.890625 0 
L 10.890625 47.703125 
L 2.296875 47.703125 
L 2.296875 54.6875 
L 10.890625 54.6875 
L 10.890625 58.5 
Q 10.890625 67.625 15.140625 71.796875 
Q 19.390625 75.984375 28.609375 75.984375 
z
" id="DejaVuSans-102"/>
      <path d="M 9.421875 75.984375 
L 18.40625 75.984375 
L 18.40625 0 
L 9.421875 0 
z
" id="DejaVuSans-108"/>
      <path d="M 8.5 21.578125 
L 8.5 54.6875 
L 17.484375 54.6875 
L 17.484375 21.921875 
Q 17.484375 14.15625 20.5 10.265625 
Q 23.53125 6.390625 29.59375 6.390625 
Q 36.859375 6.390625 41.078125 11.03125 
Q 45.3125 15.671875 45.3125 23.6875 
L 45.3125 54.6875 
L 54.296875 54.6875 
L 54.296875 0 
L 45.3125 0 
L 45.3125 8.40625 
Q 42.046875 3.421875 37.71875 1 
Q 33.40625 -1.421875 27.6875 -1.421875 
Q 18.265625 -1.421875 13.375 4.4375 
Q 8.5 10.296875 8.5 21.578125 
z
M 31.109375 56 
z
" id="DejaVuSans-117"/>
      <path d="M 30.609375 48.390625 
Q 23.390625 48.390625 19.1875 42.75 
Q 14.984375 37.109375 14.984375 27.296875 
Q 14.984375 17.484375 19.15625 11.84375 
Q 23.34375 6.203125 30.609375 6.203125 
Q 37.796875 6.203125 41.984375 11.859375 
Q 46.1875 17.53125 46.1875 27.296875 
Q 46.1875 37.015625 41.984375 42.703125 
Q 37.796875 48.390625 30.609375 48.390625 
z
M 30.609375 56 
Q 42.328125 56 49.015625 48.375 
Q 55.71875 40.765625 55.71875 27.296875 
Q 55.71875 13.875 49.015625 6.21875 
Q 42.328125 -1.421875 30.609375 -1.421875 
Q 18.84375 -1.421875 12.171875 6.21875 
Q 5.515625 13.875 5.515625 27.296875 
Q 5.515625 40.765625 12.171875 48.375 
Q 18.84375 56 30.609375 56 
z
" id="DejaVuSans-111"/>
      <path d="M 41.109375 46.296875 
Q 39.59375 47.171875 37.8125 47.578125 
Q 36.03125 48 33.890625 48 
Q 26.265625 48 22.1875 43.046875 
Q 18.109375 38.09375 18.109375 28.8125 
L 18.109375 0 
L 9.078125 0 
L 9.078125 54.6875 
L 18.109375 54.6875 
L 18.109375 46.1875 
Q 20.953125 51.171875 25.484375 53.578125 
Q 30.03125 56 36.53125 56 
Q 37.453125 56 38.578125 55.875 
Q 39.703125 55.765625 41.0625 55.515625 
z
" id="DejaVuSans-114"/>
      <path d="M 54.890625 33.015625 
L 54.890625 0 
L 45.90625 0 
L 45.90625 32.71875 
Q 45.90625 40.484375 42.875 44.328125 
Q 39.84375 48.1875 33.796875 48.1875 
Q 26.515625 48.1875 22.3125 43.546875 
Q 18.109375 38.921875 18.109375 30.90625 
L 18.109375 0 
L 9.078125 0 
L 9.078125 54.6875 
L 18.109375 54.6875 
L 18.109375 46.1875 
Q 21.34375 51.125 25.703125 53.5625 
Q 30.078125 56 35.796875 56 
Q 45.21875 56 50.046875 50.171875 
Q 54.890625 44.34375 54.890625 33.015625 
z
" id="DejaVuSans-110"/>
      <path d="M 34.1875 63.1875 
L 20.796875 26.90625 
L 47.609375 26.90625 
z
M 28.609375 72.90625 
L 39.796875 72.90625 
L 67.578125 0 
L 57.328125 0 
L 50.6875 18.703125 
L 17.828125 18.703125 
L 11.1875 0 
L 0.78125 0 
z
" id="DejaVuSans-65"/>
      <path d="M 10.6875 12.40625 
L 21 12.40625 
L 21 0 
L 10.6875 0 
z
" id="DejaVuSans-46"/>
      <path d="M 8.6875 72.90625 
L 18.609375 72.90625 
L 18.609375 28.609375 
Q 18.609375 16.890625 22.84375 11.734375 
Q 27.09375 6.59375 36.625 6.59375 
Q 46.09375 6.59375 50.34375 11.734375 
Q 54.59375 16.890625 54.59375 28.609375 
L 54.59375 72.90625 
L 64.5 72.90625 
L 64.5 27.390625 
Q 64.5 13.140625 57.4375 5.859375 
Q 50.390625 -1.421875 36.625 -1.421875 
Q 22.796875 -1.421875 15.734375 5.859375 
Q 8.6875 13.140625 8.6875 27.390625 
z
" id="DejaVuSans-85"/>
     </defs>
     <g transform="translate(15.145312 141.589531)rotate(-90)scale(0.1 -0.1)">
      <use xlink:href="#DejaVuSans-102"/>
      <use x="35.205078" xlink:href="#DejaVuSans-108"/>
      <use x="62.988281" xlink:href="#DejaVuSans-117"/>
      <use x="126.367188" xlink:href="#DejaVuSans-111"/>
      <use x="187.548828" xlink:href="#DejaVuSans-114"/>
      <use x="228.630859" xlink:href="#DejaVuSans-101"/>
      <use x="290.154297" xlink:href="#DejaVuSans-115"/>
      <use x="342.253906" xlink:href="#DejaVuSans-99"/>
      <use x="397.234375" xlink:href="#DejaVuSans-101"/>
      <use x="458.757812" xlink:href="#DejaVuSans-110"/>
      <use x="522.136719" xlink:href="#DejaVuSans-99"/>
      <use x="577.117188" xlink:href="#DejaVuSans-101"/>
      <use x="638.640625" xlink:href="#DejaVuSans-32"/>
      <use x="670.427734" xlink:href="#DejaVuSans-40"/>
      <use x="709.441406" xlink:href="#DejaVuSans-65"/>
      <use x="777.833984" xlink:href="#DejaVuSans-46"/>
      <use x="809.621094" xlink:href="#DejaVuSans-32"/>
      <use x="841.408203" xlink:href="#DejaVuSans-85"/>
      <use x="914.601562" xlink:href="#DejaVuSans-46"/>
      <use x="946.388672" xlink:href="#DejaVuSans-41"/>
     </g>
    </g>
   </g>
   <g id="line2d_10">
    <path clip-path="url(#p18d91a5b9e)" d="M 123.894 161.44 
L 123.894 23.2 
" style="fill:none;stroke:#000000;stroke-dasharray:1.5,2.475;stroke-dashoffset:0;stroke-width:1.5;"/>
   </g>
   <g id="patch_3">
    <path d="M 40.95 161.44 
L 40.95 23.2 
" style="fill:none;stroke:#000000;stroke-linecap:square;stroke-linejoin:miter;stroke-width:0.8;"/>
   </g>
   <g id="patch_4">
    <path d="M 40.95 161.44 
L 206.838 161.44 
" style="fill:none;stroke:#000000;stroke-linecap:square;stroke-linejoin:miter;stroke-width:0.8;"/>
   </g>
   <g id="text_11">
    <!-- Aligned -->
    <defs>
     <path d="M 45.40625 27.984375 
Q 45.40625 37.75 41.375 43.109375 
Q 37.359375 48.484375 30.078125 48.484375 
Q 22.859375 48.484375 18.828125 43.109375 
Q 14.796875 37.75 14.796875 27.984375 
Q 14.796875 18.265625 18.828125 12.890625 
Q 22.859375 7.515625 30.078125 7.515625 
Q 37.359375 7.515625 41.375 12.890625 
Q 45.40625 18.265625 45.40625 27.984375 
z
M 54.390625 6.78125 
Q 54.390625 -7.171875 48.1875 -13.984375 
Q 42 -20.796875 29.203125 -20.796875 
Q 24.46875 -20.796875 20.265625 -20.09375 
Q 16.0625 -19.390625 12.109375 -17.921875 
L 12.109375 -9.1875 
Q 16.0625 -11.328125 19.921875 -12.34375 
Q 23.78125 -13.375 27.78125 -13.375 
Q 36.625 -13.375 41.015625 -8.765625 
Q 45.40625 -4.15625 45.40625 5.171875 
L 45.40625 9.625 
Q 42.625 4.78125 38.28125 2.390625 
Q 33.9375 0 27.875 0 
Q 17.828125 0 11.671875 7.65625 
Q 5.515625 15.328125 5.515625 27.984375 
Q 5.515625 40.671875 11.671875 48.328125 
Q 17.828125 56 27.875 56 
Q 33.9375 56 38.28125 53.609375 
Q 42.625 51.21875 45.40625 46.390625 
L 45.40625 54.6875 
L 54.390625 54.6875 
z
" id="DejaVuSans-103"/>
     <path d="M 45.40625 46.390625 
L 45.40625 75.984375 
L 54.390625 75.984375 
L 54.390625 0 
L 45.40625 0 
L 45.40625 8.203125 
Q 42.578125 3.328125 38.25 0.953125 
Q 33.9375 -1.421875 27.875 -1.421875 
Q 17.96875 -1.421875 11.734375 6.484375 
Q 5.515625 14.40625 5.515625 27.296875 
Q 5.515625 40.1875 11.734375 48.09375 
Q 17.96875 56 27.875 56 
Q 33.9375 56 38.25 53.625 
Q 42.578125 51.265625 45.40625 46.390625 
z
M 14.796875 27.296875 
Q 14.796875 17.390625 18.875 11.75 
Q 22.953125 6.109375 30.078125 6.109375 
Q 37.203125 6.109375 41.296875 11.75 
Q 45.40625 17.390625 45.40625 27.296875 
Q 45.40625 37.203125 41.296875 42.84375 
Q 37.203125 48.484375 30.078125 48.484375 
Q 22.953125 48.484375 18.875 42.84375 
Q 14.796875 37.203125 14.796875 27.296875 
z
" id="DejaVuSans-100"/>
    </defs>
    <g transform="translate(101.343375 17.2)scale(0.12 -0.12)">
     <use xlink:href="#DejaVuSans-65"/>
     <use x="68.408203" xlink:href="#DejaVuSans-108"/>
     <use x="96.191406" xlink:href="#DejaVuSans-105"/>
     <use x="123.974609" xlink:href="#DejaVuSans-103"/>
     <use x="187.451172" xlink:href="#DejaVuSans-110"/>
     <use x="250.830078" xlink:href="#DejaVuSans-101"/>
     <use x="312.353516" xlink:href="#DejaVuSans-100"/>
    </g>
   </g>
  </g>
  <g id="axes_2">
   <g id="patch_5">
    <path d="M 289.782 161.44 
L 455.67 161.44 
L 455.67 23.2 
L 289.782 23.2 
z
" style="fill:#ffffff;"/>
   </g>
   <g id="PolyCollection_2">
    <defs>
     <path d="M 289.782 -74.001581 
L 289.782 -66.921133 
L 290.33496 -66.89105 
L 290.88792 -66.908988 
L 291.44088 -66.921184 
L 291.99384 -66.908176 
L 292.5468 -66.877578 
L 293.09976 -66.810563 
L 293.65272 -66.888855 
L 294.20568 -66.864663 
L 294.75864 -66.839699 
L 295.3116 -66.887072 
L 295.86456 -66.886019 
L 296.41752 -66.851751 
L 296.97048 -66.824292 
L 297.52344 -66.825998 
L 298.0764 -66.795337 
L 298.62936 -66.851776 
L 299.18232 -66.862841 
L 299.73528 -66.801148 
L 300.28824 -66.819924 
L 300.8412 -66.789385 
L 301.39416 -66.839504 
L 301.94712 -66.774899 
L 302.50008 -66.790083 
L 303.05304 -66.827927 
L 303.606 -66.783531 
L 304.15896 -66.768412 
L 304.71192 -66.763185 
L 305.26488 -66.762558 
L 305.81784 -66.735492 
L 306.3708 -66.653163 
L 306.92376 -66.666354 
L 307.47672 -66.642397 
L 308.02968 -66.718088 
L 308.58264 -66.622146 
L 309.1356 -66.67747 
L 309.68856 -66.703628 
L 310.24152 -66.632875 
L 310.79448 -66.675253 
L 311.34744 -66.627941 
L 311.9004 -66.589851 
L 312.45336 -66.62616 
L 313.00632 -66.633653 
L 313.55928 -66.624121 
L 314.11224 -66.638653 
L 314.6652 -66.628081 
L 315.21816 -66.643814 
L 315.77112 -66.724519 
L 316.32408 -66.744443 
L 316.87704 -66.673639 
L 317.43 -66.74001 
L 317.98296 -66.805496 
L 318.53592 -66.744982 
L 319.08888 -66.765807 
L 319.64184 -66.836961 
L 320.1948 -66.797305 
L 320.74776 -66.754449 
L 321.30072 -66.76544 
L 321.85368 -66.82081 
L 322.40664 -66.854724 
L 322.9596 -66.868232 
L 323.51256 -66.849972 
L 324.06552 -66.881594 
L 324.61848 -66.877721 
L 325.17144 -66.935691 
L 325.7244 -66.9173 
L 326.27736 -66.945436 
L 326.83032 -66.954133 
L 327.38328 -66.962264 
L 327.93624 -66.961833 
L 328.4892 -67.019435 
L 329.04216 -66.950369 
L 329.59512 -67.005121 
L 330.14808 -67.053852 
L 330.70104 -67.040242 
L 331.254 -67.047262 
L 331.80696 -67.024156 
L 332.35992 -67.073977 
L 332.91288 -67.114709 
L 333.46584 -67.082593 
L 334.0188 -67.079988 
L 334.57176 -67.074531 
L 335.12472 -67.093229 
L 335.67768 -67.105431 
L 336.23064 -67.063261 
L 336.7836 -67.051588 
L 337.33656 -67.082523 
L 337.88952 -67.076331 
L 338.44248 -67.060917 
L 338.99544 -67.117641 
L 339.5484 -67.092303 
L 340.10136 -67.091594 
L 340.65432 -67.094914 
L 341.20728 -67.07813 
L 341.76024 -67.075291 
L 342.3132 -67.039401 
L 342.86616 -67.036606 
L 343.41912 -67.043611 
L 343.97208 -67.051061 
L 344.52504 -67.060018 
L 345.078 -67.03772 
L 345.63096 -67.019729 
L 346.18392 -67.020039 
L 346.73688 -67.097104 
L 347.28984 -67.072177 
L 347.8428 -67.034966 
L 348.39576 -67.039547 
L 348.94872 -67.02471 
L 349.50168 -66.981147 
L 350.05464 -67.013551 
L 350.6076 -67.042599 
L 351.16056 -66.981097 
L 351.71352 -67.010044 
L 352.26648 -67.019927 
L 352.81944 -66.996814 
L 353.3724 -67.05694 
L 353.92536 -67.085956 
L 354.47832 -67.077568 
L 355.03128 -67.065957 
L 355.58424 -67.109898 
L 356.1372 -67.072031 
L 356.69016 -67.058081 
L 357.24312 -67.042242 
L 357.79608 -67.043758 
L 358.34904 -67.102648 
L 358.902 -67.143013 
L 359.45496 -67.141308 
L 360.00792 -67.137661 
L 360.56088 -67.107779 
L 361.11384 -67.127604 
L 361.6668 -67.097667 
L 362.21976 -67.110356 
L 362.77272 -67.021438 
L 363.32568 -67.046711 
L 363.87864 -67.034499 
L 364.4316 -67.021339 
L 364.98456 -67.067818 
L 365.53752 -67.013542 
L 366.09048 -66.976962 
L 366.64344 -67.061618 
L 367.1964 -67.071673 
L 367.74936 -67.016388 
L 368.30232 -67.002667 
L 368.85528 -67.044733 
L 369.40824 -66.966658 
L 369.9612 -66.982346 
L 370.51416 -66.981246 
L 371.06712 -66.986258 
L 371.62008 -66.946339 
L 372.17304 -66.982495 
L 372.726 -66.950031 
L 373.27896 -66.997997 
L 373.83192 -66.952418 
L 374.38488 -66.898788 
L 374.93784 -66.88743 
L 375.4908 -66.906129 
L 376.04376 -66.832643 
L 376.59672 -66.871987 
L 377.14968 -66.782435 
L 377.70264 -66.760957 
L 378.2556 -66.735694 
L 378.80856 -66.763745 
L 379.36152 -66.74493 
L 379.91448 -66.740202 
L 380.46744 -66.667974 
L 381.0204 -66.664457 
L 381.57336 -66.657065 
L 382.12632 -66.608831 
L 382.67928 -66.633508 
L 383.23224 -66.652231 
L 383.7852 -66.602585 
L 384.33816 -66.656111 
L 384.89112 -66.572973 
L 385.44408 -66.631691 
L 385.99704 -66.636917 
L 386.55 -66.636386 
L 387.10296 -66.698344 
L 387.65592 -66.657439 
L 388.20888 -66.678406 
L 388.76184 -66.722199 
L 389.3148 -66.748537 
L 389.86776 -66.780742 
L 390.42072 -66.768333 
L 390.97368 -66.810285 
L 391.52664 -66.805605 
L 392.0796 -66.795062 
L 392.63256 -66.80314 
L 393.18552 -66.777403 
L 393.73848 -66.839642 
L 394.29144 -66.761648 
L 394.8444 -66.753004 
L 395.39736 -66.747004 
L 395.95032 -66.742683 
L 396.50328 -66.794822 
L 397.05624 -66.808879 
L 397.6092 -66.836228 
L 398.16216 -66.781362 
L 398.71512 -66.844484 
L 399.26808 -66.85767 
L 399.82104 -66.855112 
L 400.374 -66.892116 
L 400.92696 -66.872225 
L 401.47992 -66.883468 
L 402.03288 -66.854808 
L 402.58584 -66.918435 
L 403.1388 -66.904409 
L 403.69176 -66.917525 
L 404.24472 -66.890134 
L 404.79768 -66.862781 
L 405.35064 -66.972112 
L 405.9036 -66.924459 
L 406.45656 -66.971234 
L 407.00952 -66.993281 
L 407.56248 -66.992111 
L 408.11544 -66.990269 
L 408.6684 -67.042303 
L 409.22136 -67.063415 
L 409.77432 -67.074208 
L 410.32728 -67.168991 
L 410.88024 -67.129521 
L 411.4332 -67.193335 
L 411.98616 -67.154514 
L 412.53912 -67.259346 
L 413.09208 -67.284779 
L 413.64504 -67.260785 
L 414.198 -67.310935 
L 414.75096 -67.337765 
L 415.30392 -67.338661 
L 415.85688 -67.338126 
L 416.40984 -67.302304 
L 416.9628 -67.300112 
L 417.51576 -67.316477 
L 418.06872 -67.268818 
L 418.62168 -67.243136 
L 419.17464 -67.227915 
L 419.7276 -67.248533 
L 420.28056 -67.152006 
L 420.83352 -67.197502 
L 421.38648 -67.087983 
L 421.93944 -67.089646 
L 422.4924 -67.070426 
L 423.04536 -67.128859 
L 423.59832 -67.073492 
L 424.15128 -67.06923 
L 424.70424 -67.059186 
L 425.2572 -67.06216 
L 425.81016 -67.152929 
L 426.36312 -67.151886 
L 426.91608 -67.145913 
L 427.46904 -67.131541 
L 428.022 -67.162674 
L 428.57496 -67.137387 
L 429.12792 -67.108397 
L 429.68088 -67.049361 
L 430.23384 -67.05932 
L 430.7868 -67.048713 
L 431.33976 -67.071559 
L 431.89272 -67.071604 
L 432.44568 -67.04697 
L 432.99864 -67.092648 
L 433.5516 -67.0917 
L 434.10456 -67.129406 
L 434.65752 -67.124687 
L 435.21048 -67.092926 
L 435.76344 -67.213452 
L 436.3164 -67.216241 
L 436.86936 -67.251934 
L 437.42232 -67.238637 
L 437.97528 -67.253355 
L 438.52824 -67.289663 
L 439.0812 -67.242692 
L 439.63416 -67.258527 
L 440.18712 -67.308975 
L 440.74008 -67.313762 
L 441.29304 -67.31278 
L 441.846 -67.303514 
L 442.39896 -67.298493 
L 442.95192 -67.319271 
L 443.50488 -67.265071 
L 444.05784 -67.299382 
L 444.6108 -67.253848 
L 445.16376 -67.26731 
L 445.71672 -67.278276 
L 446.26968 -67.232925 
L 446.82264 -67.320408 
L 447.3756 -67.303383 
L 447.92856 -67.291469 
L 448.48152 -67.301012 
L 449.03448 -67.312878 
L 449.58744 -67.310645 
L 450.1404 -67.298018 
L 450.69336 -67.308318 
L 451.24632 -67.323144 
L 451.79928 -67.364597 
L 452.35224 -67.337299 
L 452.9052 -67.36733 
L 453.45816 -67.352456 
L 454.01112 -67.332966 
L 454.56408 -67.354301 
L 455.11704 -67.327068 
L 455.67 -67.347272 
L 455.67 -74.23082 
L 455.67 -74.23082 
L 455.11704 -74.198758 
L 454.56408 -74.222501 
L 454.01112 -74.194435 
L 453.45816 -74.20413 
L 452.9052 -74.207582 
L 452.35224 -74.169025 
L 451.79928 -74.192464 
L 451.24632 -74.136196 
L 450.69336 -74.107383 
L 450.1404 -74.096674 
L 449.58744 -74.098946 
L 449.03448 -74.094359 
L 448.48152 -74.073932 
L 447.92856 -74.062855 
L 447.3756 -74.069919 
L 446.82264 -74.07921 
L 446.26968 -73.985181 
L 445.71672 -74.029475 
L 445.16376 -74.017426 
L 444.6108 -74.000929 
L 444.05784 -74.04828 
L 443.50488 -74.010411 
L 442.95192 -74.070582 
L 442.39896 -74.048679 
L 441.846 -74.049658 
L 441.29304 -74.058409 
L 440.74008 -74.058208 
L 440.18712 -74.049268 
L 439.63416 -74.002374 
L 439.0812 -73.989476 
L 438.52824 -74.032827 
L 437.97528 -73.998572 
L 437.42232 -73.982098 
L 436.86936 -73.99836 
L 436.3164 -73.964016 
L 435.76344 -73.960618 
L 435.21048 -73.837225 
L 434.65752 -73.868964 
L 434.10456 -73.86478 
L 433.5516 -73.823756 
L 432.99864 -73.82647 
L 432.44568 -73.78462 
L 431.89272 -73.81155 
L 431.33976 -73.808878 
L 430.7868 -73.789865 
L 430.23384 -73.804291 
L 429.68088 -73.79026 
L 429.12792 -73.850728 
L 428.57496 -73.874384 
L 428.022 -73.903793 
L 427.46904 -73.874278 
L 426.91608 -73.882372 
L 426.36312 -73.886846 
L 425.81016 -73.889814 
L 425.2572 -73.78764 
L 424.70424 -73.785098 
L 424.15128 -73.801682 
L 423.59832 -73.800473 
L 423.04536 -73.862031 
L 422.4924 -73.804573 
L 421.93944 -73.826209 
L 421.38648 -73.82812 
L 420.83352 -73.94818 
L 420.28056 -73.907503 
L 419.7276 -74.014252 
L 419.17464 -74.000044 
L 418.62168 -74.022264 
L 418.06872 -74.059945 
L 417.51576 -74.112669 
L 416.9628 -74.101597 
L 416.40984 -74.110165 
L 415.85688 -74.152195 
L 415.30392 -74.159722 
L 414.75096 -74.161786 
L 414.198 -74.136154 
L 413.64504 -74.101245 
L 413.09208 -74.132582 
L 412.53912 -74.114153 
L 411.98616 -74.007637 
L 411.4332 -74.057406 
L 410.88024 -73.995895 
L 410.32728 -74.040795 
L 409.77432 -73.95041 
L 409.22136 -73.937464 
L 408.6684 -73.926384 
L 408.11544 -73.875013 
L 407.56248 -73.883577 
L 407.00952 -73.888221 
L 406.45656 -73.86711 
L 405.9036 -73.821546 
L 405.35064 -73.868417 
L 404.79768 -73.768133 
L 404.24472 -73.795777 
L 403.69176 -73.829588 
L 403.1388 -73.820495 
L 402.58584 -73.836615 
L 402.03288 -73.772978 
L 401.47992 -73.803711 
L 400.92696 -73.794141 
L 400.374 -73.821278 
L 399.82104 -73.784607 
L 399.26808 -73.793894 
L 398.71512 -73.783228 
L 398.16216 -73.714214 
L 397.6092 -73.774144 
L 397.05624 -73.748152 
L 396.50328 -73.744267 
L 395.95032 -73.691304 
L 395.39736 -73.690199 
L 394.8444 -73.701956 
L 394.29144 -73.714353 
L 393.73848 -73.804837 
L 393.18552 -73.741359 
L 392.63256 -73.773305 
L 392.0796 -73.771417 
L 391.52664 -73.780744 
L 390.97368 -73.791746 
L 390.42072 -73.751191 
L 389.86776 -73.769625 
L 389.3148 -73.739984 
L 388.76184 -73.71544 
L 388.20888 -73.67413 
L 387.65592 -73.65968 
L 387.10296 -73.698396 
L 386.55 -73.6341 
L 385.99704 -73.649428 
L 385.44408 -73.641207 
L 384.89112 -73.589649 
L 384.33816 -73.679323 
L 383.7852 -73.629115 
L 383.23224 -73.688219 
L 382.67928 -73.673683 
L 382.12632 -73.655142 
L 381.57336 -73.706409 
L 381.0204 -73.715658 
L 380.46744 -73.726219 
L 379.91448 -73.803449 
L 379.36152 -73.814729 
L 378.80856 -73.834806 
L 378.2556 -73.817848 
L 377.70264 -73.849291 
L 377.14968 -73.876801 
L 376.59672 -73.975502 
L 376.04376 -73.940591 
L 375.4908 -74.010273 
L 374.93784 -74.001727 
L 374.38488 -74.01424 
L 373.83192 -74.074963 
L 373.27896 -74.121076 
L 372.726 -74.075122 
L 372.17304 -74.10068 
L 371.62008 -74.062845 
L 371.06712 -74.107639 
L 370.51416 -74.090844 
L 369.9612 -74.101448 
L 369.40824 -74.087401 
L 368.85528 -74.170828 
L 368.30232 -74.128816 
L 367.74936 -74.141231 
L 367.1964 -74.207242 
L 366.64344 -74.193046 
L 366.09048 -74.110564 
L 365.53752 -74.13957 
L 364.98456 -74.188226 
L 364.4316 -74.156504 
L 363.87864 -74.172511 
L 363.32568 -74.178464 
L 362.77272 -74.157316 
L 362.21976 -74.244987 
L 361.6668 -74.239941 
L 361.11384 -74.273389 
L 360.56088 -74.254008 
L 360.00792 -74.285867 
L 359.45496 -74.290602 
L 358.902 -74.289096 
L 358.34904 -74.244711 
L 357.79608 -74.190114 
L 357.24312 -74.181069 
L 356.69016 -74.188107 
L 356.1372 -74.20343 
L 355.58424 -74.249275 
L 355.03128 -74.197961 
L 354.47832 -74.20212 
L 353.92536 -74.200164 
L 353.3724 -74.163431 
L 352.81944 -74.086731 
L 352.26648 -74.101244 
L 351.71352 -74.083548 
L 351.16056 -74.043255 
L 350.6076 -74.093387 
L 350.05464 -74.051653 
L 349.50168 -74.02021 
L 348.94872 -74.043871 
L 348.39576 -74.048262 
L 347.8428 -74.035197 
L 347.28984 -74.053789 
L 346.73688 -74.07917 
L 346.18392 -73.987709 
L 345.63096 -73.974332 
L 345.078 -73.981102 
L 344.52504 -74.002193 
L 343.97208 -73.991559 
L 343.41912 -73.975428 
L 342.86616 -73.949633 
L 342.3132 -73.948628 
L 341.76024 -73.974151 
L 341.20728 -73.977583 
L 340.65432 -73.987748 
L 340.10136 -73.981595 
L 339.5484 -73.985451 
L 338.99544 -74.004568 
L 338.44248 -73.939006 
L 337.88952 -73.963593 
L 337.33656 -73.960966 
L 336.7836 -73.935526 
L 336.23064 -73.957432 
L 335.67768 -74.009909 
L 335.12472 -73.983861 
L 334.57176 -73.968583 
L 334.0188 -73.983547 
L 333.46584 -73.983188 
L 332.91288 -74.026778 
L 332.35992 -73.98421 
L 331.80696 -73.923755 
L 331.254 -73.956986 
L 330.70104 -73.94345 
L 330.14808 -73.960292 
L 329.59512 -73.909147 
L 329.04216 -73.857365 
L 328.4892 -73.917495 
L 327.93624 -73.859282 
L 327.38328 -73.861269 
L 326.83032 -73.849505 
L 326.27736 -73.844626 
L 325.7244 -73.821409 
L 325.17144 -73.834836 
L 324.61848 -73.781103 
L 324.06552 -73.790384 
L 323.51256 -73.750747 
L 322.9596 -73.772784 
L 322.40664 -73.756981 
L 321.85368 -73.713997 
L 321.30072 -73.675478 
L 320.74776 -73.654798 
L 320.1948 -73.692814 
L 319.64184 -73.741745 
L 319.08888 -73.670791 
L 318.53592 -73.651752 
L 317.98296 -73.719295 
L 317.43 -73.667365 
L 316.87704 -73.594675 
L 316.32408 -73.670119 
L 315.77112 -73.656962 
L 315.21816 -73.573607 
L 314.6652 -73.565111 
L 314.11224 -73.577574 
L 313.55928 -73.570723 
L 313.00632 -73.582436 
L 312.45336 -73.581252 
L 311.9004 -73.548278 
L 311.34744 -73.588376 
L 310.79448 -73.637175 
L 310.24152 -73.593842 
L 309.68856 -73.669385 
L 309.1356 -73.645234 
L 308.58264 -73.594933 
L 308.02968 -73.695535 
L 307.47672 -73.627436 
L 306.92376 -73.652903 
L 306.3708 -73.645647 
L 305.81784 -73.738536 
L 305.26488 -73.767209 
L 304.71192 -73.772202 
L 304.15896 -73.782363 
L 303.606 -73.797732 
L 303.05304 -73.854607 
L 302.50008 -73.821184 
L 301.94712 -73.800895 
L 301.39416 -73.871476 
L 300.8412 -73.830701 
L 300.28824 -73.859976 
L 299.73528 -73.849102 
L 299.18232 -73.911367 
L 298.62936 -73.891148 
L 298.0764 -73.843878 
L 297.52344 -73.874024 
L 296.97048 -73.870983 
L 296.41752 -73.914348 
L 295.86456 -73.954476 
L 295.3116 -73.957571 
L 294.75864 -73.908934 
L 294.20568 -73.93529 
L 293.65272 -73.962376 
L 293.09976 -73.881019 
L 292.5468 -73.950525 
L 291.99384 -73.994103 
L 291.44088 -74.011151 
L 290.88792 -73.991964 
L 290.33496 -73.974645 
L 289.782 -74.001581 
z
" id="m0a7503e7a8" style="stroke:#000000;stroke-opacity:0.6;stroke-width:0.5;"/>
    </defs>
    <g clip-path="url(#p0f48859f8a)">
     <use style="fill:#30a2da;fill-opacity:0.6;stroke:#000000;stroke-opacity:0.6;stroke-width:0.5;" x="0" xlink:href="#m0a7503e7a8" y="199.64"/>
    </g>
   </g>
   <g id="line2d_11">
    <path clip-path="url(#p0f48859f8a)" d="M 289.782 129.178643 
L 293.09976 129.294209 
L 294.20568 129.240023 
L 298.0764 129.320392 
L 299.18232 129.252896 
L 300.8412 129.329957 
L 301.39416 129.28451 
L 302.50008 129.334366 
L 303.606 129.349369 
L 314.6652 129.543404 
L 337.88952 129.120038 
L 340.10136 129.103405 
L 348.94872 129.105709 
L 350.05464 129.107398 
L 351.71352 129.093204 
L 361.11384 128.939503 
L 364.4316 129.051078 
L 365.53752 129.063444 
L 366.09048 129.096237 
L 367.1964 129.000543 
L 368.30232 129.074259 
L 368.85528 129.03222 
L 369.9612 129.098103 
L 376.59672 129.216255 
L 377.70264 129.334876 
L 382.67928 129.486405 
L 384.33816 129.472283 
L 384.89112 129.558689 
L 387.10296 129.44163 
L 388.20888 129.463732 
L 390.97368 129.338985 
L 398.16216 129.392212 
L 399.26808 129.314218 
L 404.79768 129.324543 
L 405.35064 129.219736 
L 406.45656 129.220828 
L 416.40984 128.933765 
L 419.7276 129.008608 
L 420.28056 129.110246 
L 420.83352 129.067159 
L 421.38648 129.181949 
L 435.21048 129.174924 
L 435.76344 129.052965 
L 455.67 128.850954 
L 455.67 128.850954 
" style="fill:none;stroke:#000000;stroke-linecap:square;stroke-width:2;"/>
   </g>
   <g id="matplotlib.axis_3">
    <g id="xtick_6">
     <g id="line2d_12">
      <g>
       <use style="stroke:#000000;stroke-width:0.8;" x="289.782" xlink:href="#m21c90d8cb3" y="161.44"/>
      </g>
     </g>
     <g id="text_12">
      <!-- −10 -->
      <g transform="translate(279.229656 176.038438)scale(0.1 -0.1)">
       <use xlink:href="#DejaVuSans-8722"/>
       <use x="83.789062" xlink:href="#DejaVuSans-49"/>
       <use x="147.412109" xlink:href="#DejaVuSans-48"/>
      </g>
     </g>
    </g>
    <g id="xtick_7">
     <g id="line2d_13">
      <g>
       <use style="stroke:#000000;stroke-width:0.8;" x="331.254" xlink:href="#m21c90d8cb3" y="161.44"/>
      </g>
     </g>
     <g id="text_13">
      <!-- −5 -->
      <g transform="translate(323.882906 176.038438)scale(0.1 -0.1)">
       <use xlink:href="#DejaVuSans-8722"/>
       <use x="83.789062" xlink:href="#DejaVuSans-53"/>
      </g>
     </g>
    </g>
    <g id="xtick_8">
     <g id="line2d_14">
      <g>
       <use style="stroke:#000000;stroke-width:0.8;" x="372.726" xlink:href="#m21c90d8cb3" y="161.44"/>
      </g>
     </g>
     <g id="text_14">
      <!-- 0 -->
      <g transform="translate(369.54475 176.038438)scale(0.1 -0.1)">
       <use xlink:href="#DejaVuSans-48"/>
      </g>
     </g>
    </g>
    <g id="xtick_9">
     <g id="line2d_15">
      <g>
       <use style="stroke:#000000;stroke-width:0.8;" x="414.198" xlink:href="#m21c90d8cb3" y="161.44"/>
      </g>
     </g>
     <g id="text_15">
      <!-- 5 -->
      <g transform="translate(411.01675 176.038438)scale(0.1 -0.1)">
       <use xlink:href="#DejaVuSans-53"/>
      </g>
     </g>
    </g>
    <g id="xtick_10">
     <g id="line2d_16">
      <g>
       <use style="stroke:#000000;stroke-width:0.8;" x="455.67" xlink:href="#m21c90d8cb3" y="161.44"/>
      </g>
     </g>
     <g id="text_16">
      <!-- 10 -->
      <g transform="translate(449.3075 176.038438)scale(0.1 -0.1)">
       <use xlink:href="#DejaVuSans-49"/>
       <use x="63.623047" xlink:href="#DejaVuSans-48"/>
      </g>
     </g>
    </g>
    <g id="text_17">
     <!-- time (sec) -->
     <g transform="translate(347.508813 189.716563)scale(0.1 -0.1)">
      <use xlink:href="#DejaVuSans-116"/>
      <use x="39.208984" xlink:href="#DejaVuSans-105"/>
      <use x="66.992188" xlink:href="#DejaVuSans-109"/>
      <use x="164.404297" xlink:href="#DejaVuSans-101"/>
      <use x="225.927734" xlink:href="#DejaVuSans-32"/>
      <use x="257.714844" xlink:href="#DejaVuSans-40"/>
      <use x="296.728516" xlink:href="#DejaVuSans-115"/>
      <use x="348.828125" xlink:href="#DejaVuSans-101"/>
      <use x="410.351562" xlink:href="#DejaVuSans-99"/>
      <use x="465.332031" xlink:href="#DejaVuSans-41"/>
     </g>
    </g>
   </g>
   <g id="matplotlib.axis_4">
    <g id="ytick_4">
     <g id="line2d_17">
      <g>
       <use style="stroke:#000000;stroke-width:0.8;" x="289.782" xlink:href="#m09c4978795" y="130.983832"/>
      </g>
     </g>
     <g id="text_18">
      <!-- 20 -->
      <g transform="translate(270.057 134.783051)scale(0.1 -0.1)">
       <use xlink:href="#DejaVuSans-50"/>
       <use x="63.623047" xlink:href="#DejaVuSans-48"/>
      </g>
     </g>
    </g>
    <g id="ytick_5">
     <g id="line2d_18">
      <g>
       <use style="stroke:#000000;stroke-width:0.8;" x="289.782" xlink:href="#m09c4978795" y="88.054384"/>
      </g>
     </g>
     <g id="text_19">
      <!-- 30 -->
      <g transform="translate(270.057 91.853602)scale(0.1 -0.1)">
       <use xlink:href="#DejaVuSans-51"/>
       <use x="63.623047" xlink:href="#DejaVuSans-48"/>
      </g>
     </g>
    </g>
    <g id="ytick_6">
     <g id="line2d_19">
      <g>
       <use style="stroke:#000000;stroke-width:0.8;" x="289.782" xlink:href="#m09c4978795" y="45.124935"/>
      </g>
     </g>
     <g id="text_20">
      <!-- 40 -->
      <g transform="translate(270.057 48.924154)scale(0.1 -0.1)">
       <use xlink:href="#DejaVuSans-52"/>
       <use x="63.623047" xlink:href="#DejaVuSans-48"/>
      </g>
     </g>
    </g>
    <g id="text_21">
     <!-- fluorescence (A. U.) -->
     <g transform="translate(263.977313 141.589531)rotate(-90)scale(0.1 -0.1)">
      <use xlink:href="#DejaVuSans-102"/>
      <use x="35.205078" xlink:href="#DejaVuSans-108"/>
      <use x="62.988281" xlink:href="#DejaVuSans-117"/>
      <use x="126.367188" xlink:href="#DejaVuSans-111"/>
      <use x="187.548828" xlink:href="#DejaVuSans-114"/>
      <use x="228.630859" xlink:href="#DejaVuSans-101"/>
      <use x="290.154297" xlink:href="#DejaVuSans-115"/>
      <use x="342.253906" xlink:href="#DejaVuSans-99"/>
      <use x="397.234375" xlink:href="#DejaVuSans-101"/>
      <use x="458.757812" xlink:href="#DejaVuSans-110"/>
      <use x="522.136719" xlink:href="#DejaVuSans-99"/>
      <use x="577.117188" xlink:href="#DejaVuSans-101"/>
      <use x="638.640625" xlink:href="#DejaVuSans-32"/>
      <use x="670.427734" xlink:href="#DejaVuSans-40"/>
      <use x="709.441406" xlink:href="#DejaVuSans-65"/>
      <use x="777.833984" xlink:href="#DejaVuSans-46"/>
      <use x="809.621094" xlink:href="#DejaVuSans-32"/>
      <use x="841.408203" xlink:href="#DejaVuSans-85"/>
      <use x="914.601562" xlink:href="#DejaVuSans-46"/>
      <use x="946.388672" xlink:href="#DejaVuSans-41"/>
     </g>
    </g>
   </g>
   <g id="line2d_20">
    <path clip-path="url(#p0f48859f8a)" d="M 372.726 161.44 
L 372.726 23.2 
" style="fill:none;stroke:#000000;stroke-dasharray:1.5,2.475;stroke-dashoffset:0;stroke-width:1.5;"/>
   </g>
   <g id="patch_6">
    <path d="M 289.782 161.44 
L 289.782 23.2 
" style="fill:none;stroke:#000000;stroke-linecap:square;stroke-linejoin:miter;stroke-width:0.8;"/>
   </g>
   <g id="patch_7">
    <path d="M 289.782 161.44 
L 455.67 161.44 
" style="fill:none;stroke:#000000;stroke-linecap:square;stroke-linejoin:miter;stroke-width:0.8;"/>
   </g>
   <g id="text_22">
    <!-- Shuffled -->
    <defs>
     <path d="M 53.515625 70.515625 
L 53.515625 60.890625 
Q 47.90625 63.578125 42.921875 64.890625 
Q 37.9375 66.21875 33.296875 66.21875 
Q 25.25 66.21875 20.875 63.09375 
Q 16.5 59.96875 16.5 54.203125 
Q 16.5 49.359375 19.40625 46.890625 
Q 22.3125 44.4375 30.421875 42.921875 
L 36.375 41.703125 
Q 47.40625 39.59375 52.65625 34.296875 
Q 57.90625 29 57.90625 20.125 
Q 57.90625 9.515625 50.796875 4.046875 
Q 43.703125 -1.421875 29.984375 -1.421875 
Q 24.8125 -1.421875 18.96875 -0.25 
Q 13.140625 0.921875 6.890625 3.21875 
L 6.890625 13.375 
Q 12.890625 10.015625 18.65625 8.296875 
Q 24.421875 6.59375 29.984375 6.59375 
Q 38.421875 6.59375 43.015625 9.90625 
Q 47.609375 13.234375 47.609375 19.390625 
Q 47.609375 24.75 44.3125 27.78125 
Q 41.015625 30.8125 33.5 32.328125 
L 27.484375 33.5 
Q 16.453125 35.6875 11.515625 40.375 
Q 6.59375 45.0625 6.59375 53.421875 
Q 6.59375 63.09375 13.40625 68.65625 
Q 20.21875 74.21875 32.171875 74.21875 
Q 37.3125 74.21875 42.625 73.28125 
Q 47.953125 72.359375 53.515625 70.515625 
z
" id="DejaVuSans-83"/>
     <path d="M 54.890625 33.015625 
L 54.890625 0 
L 45.90625 0 
L 45.90625 32.71875 
Q 45.90625 40.484375 42.875 44.328125 
Q 39.84375 48.1875 33.796875 48.1875 
Q 26.515625 48.1875 22.3125 43.546875 
Q 18.109375 38.921875 18.109375 30.90625 
L 18.109375 0 
L 9.078125 0 
L 9.078125 75.984375 
L 18.109375 75.984375 
L 18.109375 46.1875 
Q 21.34375 51.125 25.703125 53.5625 
Q 30.078125 56 35.796875 56 
Q 45.21875 56 50.046875 50.171875 
Q 54.890625 44.34375 54.890625 33.015625 
z
" id="DejaVuSans-104"/>
    </defs>
    <g transform="translate(347.91975 17.2)scale(0.12 -0.12)">
     <use xlink:href="#DejaVuSans-83"/>
     <use x="63.476562" xlink:href="#DejaVuSans-104"/>
     <use x="126.855469" xlink:href="#DejaVuSans-117"/>
     <use x="190.234375" xlink:href="#DejaVuSans-102"/>
     <use x="225.439453" xlink:href="#DejaVuSans-102"/>
     <use x="260.644531" xlink:href="#DejaVuSans-108"/>
     <use x="288.427734" xlink:href="#DejaVuSans-101"/>
     <use x="349.951172" xlink:href="#DejaVuSans-100"/>
    </g>
   </g>
  </g>
 </g>
 <defs>
  <clipPath id="p18d91a5b9e">
   <rect height="138.24" width="165.888" x="40.95" y="23.2"/>
  </clipPath>
  <clipPath id="p0f48859f8a">
   <rect height="138.24" width="165.888" x="289.782" y="23.2"/>
  </clipPath>
 </defs>
</svg>
